<?xml version="1.0" encoding="UTF-8" standalone="no"?>
<!-- Created with Inkscape (http://www.inkscape.org/) -->

<svg
   width="210mm"
   height="297mm"
   viewBox="0 0 210 297"
   version="1.1"
   id="svg8467"
   inkscape:version="1.1.2 (0a00cf5339, 2022-02-04)"
   sodipodi:docname="mosaico.svg"
   xmlns:inkscape="http://www.inkscape.org/namespaces/inkscape"
   xmlns:sodipodi="http://sodipodi.sourceforge.net/DTD/sodipodi-0.dtd"
   xmlns="http://www.w3.org/2000/svg"
   xmlns:svg="http://www.w3.org/2000/svg">
  <sodipodi:namedview
     id="namedview8469"
     pagecolor="#ffffff"
     bordercolor="#666666"
     borderopacity="1.0"
     inkscape:pageshadow="2"
     inkscape:pageopacity="0.0"
     inkscape:pagecheckerboard="0"
     inkscape:document-units="mm"
     showgrid="false"
     inkscape:zoom="0.69664703"
     inkscape:cx="396.90114"
     inkscape:cy="560.54212"
     inkscape:window-width="1866"
     inkscape:window-height="1016"
     inkscape:window-x="0"
     inkscape:window-y="0"
     inkscape:window-maximized="1"
     inkscape:current-layer="layer1" />
  <defs
     id="defs8464" />
  <g
     inkscape:label="Capa 1"
     inkscape:groupmode="layer"
     id="layer1">
    <path
       style="fill:#0000ff;stroke:#000000;stroke-width:0.264583px;stroke-linecap:butt;stroke-linejoin:miter;stroke-opacity:1"
       d="M 67.754904,25.814218 55.282483,47.741466 144.3356,60.21834 l 6.28295,28.907473 -75.763251,8.29319 -26.208849,45.131857 -27.109381,0.15132 39.980884,46.0042 35.319488,-44.30253 -32.970989,-1.64529 21.115735,-36.15474 83.316133,-9.428126 -14.56427,-61.829502 -70.828869,-3.302439 3.557614,-19.940742 z"
       id="path8504" />
    <path
       style="fill:#808000;stroke:#000000;stroke-width:0.264583px;stroke-linecap:butt;stroke-linejoin:miter;stroke-opacity:1"
       d="m 142.42179,85.29077 -6.30372,-16.894961 -4.50561,7.750199 -19.59507,-13.641477 -49.268069,-6.475809 -12.933815,12.26472 60.509124,2.077006 20.6306,10.138756 -7.06775,5.855674 z"
       id="path8506" />
    <path
       style="fill:#ffaaaa;stroke:#000000;stroke-width:0.264583px;stroke-linecap:butt;stroke-linejoin:miter;stroke-opacity:1"
       d="M 86.462795,12.103011 64.22696,18.437879 48.716178,43.769936 36.66064,11.037803 36.355025,89.65545 86.434606,74.235164 l 19.382914,4.214838 4.50711,-8.079554 5.56786,14.751195 -15.2022,6.414982 4.40918,-8.072136 L 87.437504,80.513657 21.430252,101.97358 34.591053,3.2594158 50.778346,25.931421 60.805834,6.2280511 Z"
       id="path8508" />
    <path
       style="fill:#e9c6af;stroke:#000000;stroke-width:0.264583px;stroke-linecap:butt;stroke-linejoin:miter;stroke-opacity:1"
       d="m 76.745374,133.98618 10.950273,-19.29984 2.507242,11.26776 14.344691,-15.3832 74.29896,-8.08994 -13.57175,-72.030567 33.91009,8.241262 -2.13042,80.697615 -86.29069,-4.25044 -16.679845,13.64296 5.854189,8.49496 z"
       id="path8510" />
    <path
       style="fill:#00ff00;stroke:#000000;stroke-width:0.264583px;stroke-linecap:butt;stroke-linejoin:miter;stroke-opacity:1"
       d="m 129.80546,147.43182 56.57913,19.60397 1.20614,-34.99903 -69.72212,-9.85391 -14.30315,5.27114 17.21393,11.85377 -51.086934,47.16139 40.587664,4.38248 -26.106482,27.7948 -21.568224,-1.6987 26.814147,30.04093 36.921749,-26.79338 -30.552757,-0.80261 37.629417,-33.9012 -46.781598,-4.76672 36.504868,-22.91828 51.26051,39.01507 11.24402,-21.49256 -62.71223,-26.90465 2.12893,-16.60269 -8.98305,-2.07404 11.1105,-3.05617 49.84518,10.34053 -2.46719,19.45264 -39.24355,-23.11708 z"
       id="path8512" />
    <path
       style="fill:#ffb380;stroke:#000000;stroke-width:0.264583px;stroke-linecap:butt;stroke-linejoin:miter;stroke-opacity:1"
       d="M 21.537069,142.70218 62.605414,216.94773 14.512338,169.88574 17.528447,157.11957 4.4625958,170.97469 7.2502346,109.09178 59.902338,94.146234 66.114069,103.3993 48.155386,134.08706 22.909377,118.511 Z"
       id="path8514" />
    <path
       style="fill:#ff0000;stroke:#000000;stroke-width:0.264583px;stroke-linecap:butt;stroke-linejoin:miter;stroke-opacity:1"
       d="m 16.644236,194.81278 66.838054,60.42753 40.78646,-22.06523 13.23498,-30.937 44.94345,-0.0237 13.48867,32.96505 -20.41104,8.32434 -4.36764,-32.00666 -30.84799,0.8219 -8.61958,26.73403 -60.943806,33.83294 -18.838445,-26.63463 -0.09792,40.97786 L 16.320814,260.39724 36.671022,230.40083 10.523,235.16311 Z"
       id="path8516" />
  </g>
</svg>
